<svg width="70" height="56" viewBox="0 0 70 56" fill="none" xmlns="http://www.w3.org/2000/svg">
<path d="M35 15.3333L34.2959 16.0435L35 16.7415L35.7041 16.0435L35 15.3333ZM35 54L34.2959 54.7101L35 55.4082L35.7041 54.7101L35 54ZM44.8337 5.5837L44.1296 4.87356L44.8337 5.5837ZM64.1663 25.083L63.4622 24.3728L64.1663 25.083ZM5.83369 25.083L5.12963 25.7931L5.83369 25.083ZM35.7041 14.6232L25.8704 4.87355L24.4622 6.29382L34.2959 16.0435L35.7041 14.6232ZM5.12963 25.7931L34.2959 54.7101L35.7041 53.2899L6.53776 24.3728L5.12963 25.7931ZM35.7041 54.7101L64.8704 25.7931L63.4622 24.3728L34.2959 53.2899L35.7041 54.7101ZM44.1296 4.87356L34.2959 14.6232L35.7041 16.0435L45.5378 6.29383L44.1296 4.87356ZM64.8704 4.87356C59.1286 -0.819113 49.8714 -0.819109 44.1296 4.87356L45.5378 6.29383C50.4999 1.37413 58.5001 1.37413 63.4622 6.29383L64.8704 4.87356ZM64.8704 25.7931C70.6823 20.0309 70.6822 10.6358 64.8704 4.87356L63.4622 6.29383C68.485 11.2736 68.485 19.3931 63.4622 24.3728L64.8704 25.7931ZM5.12962 4.87356C-0.682247 10.6358 -0.682244 20.0309 5.12963 25.7931L6.53776 24.3728C1.51505 19.3931 1.51504 11.2736 6.53775 6.29383L5.12962 4.87356ZM25.8704 4.87355C20.1286 -0.819118 10.8714 -0.819112 5.12962 4.87356L6.53775 6.29383C11.4999 1.37413 19.5001 1.37413 24.4622 6.29382L25.8704 4.87355Z" fill="black"/>
</svg>
