<svg width="65" height="63" viewBox="0 0 65 63" fill="none" xmlns="http://www.w3.org/2000/svg">
<path d="M31.5489 2.16312C31.8483 1.24181 33.1517 1.24181 33.4511 2.16312L39.7437 21.5299C40.1453 22.766 41.2972 23.6028 42.5969 23.6028L62.9603 23.6028C63.929 23.6028 64.3318 24.8425 63.5481 25.4119L47.0737 37.3812C46.0223 38.1451 45.5823 39.4992 45.9839 40.7353L52.2766 60.1021C52.5759 61.0234 51.5214 61.7895 50.7377 61.2201L34.2634 49.2508C33.2119 48.4868 31.7881 48.4868 30.7366 49.2508L14.2623 61.2201C13.4786 61.7895 12.4241 61.0234 12.7234 60.1021L19.0161 40.7353C19.4177 39.4992 18.9777 38.1451 17.9263 37.3812L1.45191 25.4119C0.668191 24.8425 1.07097 23.6028 2.03969 23.6028L22.4031 23.6028C23.7028 23.6028 24.8547 22.766 25.2563 21.5299L31.5489 2.16312Z" stroke="black" stroke-width="2"/>
</svg>
