<svg width="30" height="30" viewBox="0 0 30 30" fill="none" xmlns="http://www.w3.org/2000/svg">
<path d="M24.4751 15.7563H22.321C22.5406 16.3575 22.6606 17.0062 22.6606 17.6824V25.8236C22.6606 26.1055 22.6115 26.3761 22.5222 26.6278H26.0834C27.4137 26.6278 28.4959 25.5455 28.4959 24.2153V19.7771C28.496 17.5601 26.6922 15.7563 24.4751 15.7563Z" fill="#27AE60"/>
<path d="M6.47775 17.6824C6.47775 17.0062 6.59771 16.3575 6.81727 15.7563H4.66318C2.44608 15.7563 0.642334 17.5601 0.642334 19.7772V24.2153C0.642334 25.5456 1.72455 26.6278 3.05484 26.6278H6.61609C6.52682 26.3761 6.47775 26.1055 6.47775 25.8236V17.6824Z" fill="#27AE60"/>
<path d="M17.0315 13.6616H12.1069C9.88981 13.6616 8.08606 15.4654 8.08606 17.6825V25.8237C8.08606 26.2678 8.44609 26.6279 8.89023 26.6279H20.2481C20.6923 26.6279 21.0523 26.2678 21.0523 25.8237V17.6825C21.0523 15.4654 19.2486 13.6616 17.0315 13.6616Z" fill="#27AE60"/>
<path d="M14.5692 3C11.9029 3 9.73364 5.16922 9.73364 7.83562C9.73364 9.64421 10.7319 11.2238 12.206 12.0531C12.9053 12.4464 13.7114 12.6712 14.5692 12.6712C15.427 12.6712 16.2331 12.4464 16.9324 12.0531C18.4066 11.2238 19.4048 9.64415 19.4048 7.83562C19.4048 5.16927 17.2355 3 14.5692 3Z" fill="#27AE60"/>
<path d="M6.07803 7.50708C4.08393 7.50708 2.46167 9.12934 2.46167 11.1234C2.46167 13.1175 4.08393 14.7398 6.07803 14.7398C6.58386 14.7398 7.06553 14.635 7.50309 14.4467C8.2596 14.121 8.88337 13.5444 9.26935 12.8223C9.54027 12.3154 9.69439 11.7372 9.69439 11.1234C9.69439 9.1294 8.07213 7.50708 6.07803 7.50708Z" fill="#27AE60"/>
<path d="M23.0603 7.50708C21.0662 7.50708 19.444 9.12934 19.444 11.1234C19.444 11.7372 19.5981 12.3154 19.869 12.8223C20.255 13.5445 20.8788 14.121 21.6353 14.4467C22.0728 14.635 22.5545 14.7398 23.0603 14.7398C25.0544 14.7398 26.6767 13.1175 26.6767 11.1234C26.6767 9.12934 25.0544 7.50708 23.0603 7.50708Z" fill="#27AE60"/>
</svg>
