<svg width="60" height="60" viewBox="0 0 60 60" fill="none" xmlns="http://www.w3.org/2000/svg">
<path d="M30 60C46.5685 60 60 46.5685 60 30C60 13.4315 46.5685 0 30 0C13.4315 0 0 13.4315 0 30C0 46.5685 13.4315 60 30 60Z" fill="#29A71A"/>
<path d="M43.2273 16.7726C40.106 13.6202 35.961 11.687 31.5399 11.3215C27.1188 10.9561 22.7126 12.1826 19.1162 14.7798C15.5197 17.377 12.9697 21.1738 11.9262 25.4855C10.8826 29.7972 11.4142 34.3399 13.425 38.2942L11.4511 47.8772C11.4307 47.9725 11.4301 48.0711 11.4494 48.1667C11.4688 48.2624 11.5077 48.353 11.5636 48.4329C11.6456 48.5541 11.7627 48.6475 11.8991 48.7005C12.0356 48.7535 12.1849 48.7636 12.3273 48.7294L21.7193 46.5033C25.6625 48.4632 30.1731 48.9606 34.4486 47.907C38.7241 46.8533 42.4871 44.317 45.068 40.7493C47.649 37.1816 48.8805 32.814 48.5435 28.4235C48.2064 24.033 46.3226 19.9045 43.2273 16.7726ZM40.2989 40.1453C38.1393 42.2989 35.3584 43.7204 32.3481 44.2097C29.3378 44.699 26.2498 44.2313 23.5193 42.8726L22.2102 42.2249L16.4523 43.5885L16.4693 43.5169L17.6625 37.7215L17.0216 36.4567C15.6265 33.7167 15.1343 30.6055 15.6156 27.5687C16.097 24.5319 17.5271 21.7253 19.7012 19.551C22.4329 16.8201 26.1374 15.286 30 15.286C33.8627 15.286 37.5672 16.8201 40.2989 19.551C40.3221 19.5777 40.3472 19.6028 40.3739 19.626C43.0717 22.3639 44.5778 26.0574 44.5638 29.9011C44.5497 33.7449 43.0167 37.4272 40.2989 40.1453Z" fill="white"/>
<path d="M39.7875 35.8942C39.0818 37.0056 37.9671 38.3658 36.5659 38.7033C34.1114 39.2965 30.3443 38.7238 25.6568 34.3533L25.5989 34.3022C21.4773 30.4806 20.4068 27.2999 20.6659 24.7772C20.8091 23.3454 22.0023 22.0499 23.008 21.2045C23.167 21.0688 23.3555 20.9722 23.5585 20.9224C23.7615 20.8726 23.9734 20.871 24.1771 20.9177C24.3809 20.9644 24.5709 21.0581 24.7319 21.1914C24.8929 21.3247 25.0206 21.4938 25.1046 21.6852L26.6216 25.0943C26.7202 25.3153 26.7567 25.559 26.7273 25.7993C26.6979 26.0395 26.6036 26.2672 26.4546 26.4579L25.6875 27.4533C25.5229 27.6589 25.4236 27.909 25.4024 28.1714C25.3811 28.4339 25.4388 28.6967 25.5682 28.9261C25.9977 29.6795 27.0273 30.7874 28.1693 31.8136C29.4512 32.9727 30.8727 34.0329 31.7727 34.3942C32.0136 34.4926 32.2783 34.5166 32.5329 34.4632C32.7875 34.4097 33.0203 34.2812 33.2012 34.0942L34.0909 33.1977C34.2626 33.0284 34.4761 32.9076 34.7097 32.8477C34.9432 32.7878 35.1885 32.791 35.4205 32.8567L39.0239 33.8795C39.2227 33.9404 39.4048 34.0461 39.5565 34.1883C39.7082 34.3304 39.8254 34.5054 39.8991 34.6999C39.9728 34.8943 40.001 35.103 39.9817 35.31C39.9624 35.517 39.8959 35.7168 39.7875 35.8942Z" fill="white"/>
</svg>
