<?xml version="1.0" encoding="utf-8"?><svg width="60" height="60" fill="none" xmlns="http://www.w3.org/2000/svg" viewBox="0 0 60 60"><path d="M30 60c16.569 0 30-13.431 30-30C60 13.431 46.569 0 30 0 13.431 0 0 13.431 0 30c0 16.569 13.431 30 30 30z" fill="#5C6BC0"/><path d="M47.827 18.165c-5.318-3.816-10.273-3.974-11.22-3.994l-.604.573c6.788 1.899 10.072 4.865 10.072 4.865-5.827-2.814-11.318-3.804-16.075-3.864-4.757.06-10.248 1.05-16.075 3.864 0 0 3.284-2.966 10.072-4.865l-.604-.573c-.947.02-5.902.178-11.22 3.994 0 0-5.943 9.967-5.943 22.207.202-.237 3.687 5.26 12.67 5.458 0 0 1.512-1.681 2.6-3.164-5.238-1.483-7.212-4.45-7.212-4.45C19.733 41.584 24.818 42.88 30 42.71c5.181.168 10.267-1.127 15.712-4.493 0 0-1.974 2.965-7.212 4.449 1.088 1.483 2.599 3.164 2.599 3.164 8.984-.198 12.469-5.695 12.67-5.458 0-12.24-5.942-22.207-5.942-22.207zm-25.14 18.37c-2.296 0-4.15-1.898-4.15-4.231 0-2.334 1.854-4.232 4.15-4.232v.02c2.277 0 4.15 1.898 4.15 4.232 0 2.313-1.853 4.212-4.15 4.212zm14.625 0c-2.297 0-4.15-1.898-4.15-4.211 0-2.334 1.873-4.232 4.15-4.232v-.02c2.296 0 4.15 1.899 4.15 4.232s-1.853 4.232-4.15 4.232z" fill="#fff"/></svg>