<?xml version="1.0" encoding="utf-8"?><svg width="52" height="36" fill="none" xmlns="http://www.w3.org/2000/svg" viewBox="0 0 52 36"><path d="M47.43 0H4.57C2.055 0 0 2.015 0 4.5v27C0 33.986 2.057 36 4.57 36h42.86c2.515 0 4.57-2.015 4.57-4.5v-27C52 2.014 49.944 0 47.43 0zm-.702 3L27.18 22.31c-.596.588-1.766.588-2.362 0L5.272 3h41.456zM3.047 30.948V5.052L16.155 18 3.047 30.948zM5.272 33l13.034-12.875 4.355 4.302c1.785 1.763 4.893 1.763 6.678 0l4.355-4.302L46.728 33H5.272zm43.681-2.052L35.845 18 48.953 5.052v25.896z" fill="#25A2E0"/></svg>