<?xml version="1.0" encoding="utf-8"?><svg width="70" height="56" fill="none" xmlns="http://www.w3.org/2000/svg" viewBox="0 0 70 56"><path d="M35 15.333l-.704.71.704.698.704-.697-.704-.71zM35 54l-.704.71.704.698.704-.698L35 54zm9.834-48.416l-.704-.71.704.71zm19.332 19.499l-.704-.71.704.71zm-58.332 0l-.704.71.704-.71zm29.87-10.46l-9.834-9.75-1.408 1.42 9.834 9.75 1.408-1.42zM5.13 25.793L34.296 54.71l1.408-1.42L6.538 24.373l-1.408 1.42zM35.704 54.71L64.87 25.793l-1.408-1.42L34.296 53.29l1.408 1.42zM44.13 4.874l-9.834 9.75 1.408 1.42 9.834-9.75-1.408-1.42zm20.74 0C59.13-.82 49.871-.82 44.13 4.874l1.408 1.42c4.962-4.92 12.962-4.92 17.924 0l1.408-1.42zm0 20.92c5.812-5.763 5.812-15.158 0-20.92l-1.408 1.42c5.023 4.98 5.023 13.1 0 18.079l1.408 1.42zM5.13 4.873c-5.812 5.762-5.812 15.157 0 20.92l1.408-1.421c-5.023-4.98-5.023-13.1 0-18.08L5.13 4.874zm20.74 0C20.13-.82 10.871-.82 5.13 4.874l1.408 1.42c4.962-4.92 12.962-4.92 17.924 0l1.408-1.42z" fill="#000"/></svg>