<?xml version="1.0" encoding="utf-8"?><svg width="60" height="60" fill="none" xmlns="http://www.w3.org/2000/svg" viewBox="0 0 60 60"><path d="M30 60c16.569 0 30-13.431 30-30C60 13.431 46.569 0 30 0 13.431 0 0 13.431 0 30c0 16.569 13.431 30 30 30z" fill="url(#lpaint0_linear_119_339)"/><path d="M36.373 13.334H23.64c-5.68 0-10.293 4.613-10.293 10.293v12.734c0 5.68 4.613 10.293 10.293 10.293h12.733c5.68 0 10.294-4.613 10.294-10.293V23.627c0-5.68-4.614-10.293-10.294-10.293zm6.574 23.04a6.592 6.592 0 01-6.587 6.587H23.627a6.592 6.592 0 01-6.587-6.587V23.641a6.592 6.592 0 016.587-6.587H36.36a6.592 6.592 0 016.587 6.587v12.733z" fill="#fff"/><path d="M30 21.48c-4.693 0-8.52 3.827-8.52 8.52 0 4.694 3.827 8.52 8.52 8.52s8.52-3.826 8.52-8.52c0-4.693-3.827-8.52-8.52-8.52zm0 13.694A5.178 5.178 0 0124.827 30 5.178 5.178 0 0130 24.828 5.178 5.178 0 0135.173 30 5.178 5.178 0 0130 35.175zM39.169 22.415a1.44 1.44 0 10-.46-2.842 1.44 1.44 0 00.46 2.842z" fill="#fff"/><defs><linearGradient id="lpaint0_linear_119_339" x1="7.157" y1="52.843" x2="49.791" y2="10.21" gradientUnits="userSpaceOnUse"><stop stop-color="#FEE411"/><stop offset=".052" stop-color="#FEDB16"/><stop offset=".138" stop-color="#FEC125"/><stop offset=".248" stop-color="#FE983D"/><stop offset=".376" stop-color="#FE5F5E"/><stop offset=".5" stop-color="#FE2181"/><stop offset="1" stop-color="#9000DC"/></linearGradient></defs></svg>