<?xml version="1.0" encoding="utf-8"?><svg width="30" height="30" fill="none" xmlns="http://www.w3.org/2000/svg" viewBox="0 0 30 30"><path d="M4.84 27.66c-.874-1.31-1.517-1.582-2.82-7.228a.762.762 0 01.83-.927c2.65.306 4.97-.134 6.912-1.31C5.317 14.433 4.498 8.01 5.25 4.253a.762.762 0 011.373-.284c2.366 3.419 9.04 10.065 13.767 6.256 1.66-1.36 3.2-1.913 4.58-1.643 1.404.275 2.221 1.238 2.913 2.438a.762.762 0 01-.441 1.14c-3.09.858-3.216 1.427-4.368 4.916-2.104 6.374-4.631 7.543-9.704 7.485-1.661-.02-3.096-.035-4.226.793-1.053.767-2.09 1.604-3.197 2.482a.762.762 0 01-1.107-.175zm23.037-16.65a.336.336 0 01.004.007l-.004-.007z" fill="#4E88E8"/><path d="M18 9.817c-1.838.66-4.062-.55-6-2.261.345-1.567.568-3.032.626-4.805.02-.64.704-.979 1.161-.579C16.063 4.162 17.62 6.804 18 9.817z" fill="#4E88E8"/></svg>