<?xml version="1.0" encoding="utf-8"?><svg width="60" height="60" fill="none" xmlns="http://www.w3.org/2000/svg" viewBox="0 0 60 60"><path d="M30 60c16.569 0 30-13.431 30-30C60 13.431 46.569 0 30 0 13.431 0 0 13.431 0 30c0 16.569 13.431 30 30 30z" fill="#fff"/><path d="M46.392 41.71c-.692 1.978-3.441 3.618-5.634 4.097-1.5.322-3.46.58-10.055-2.184-8.437-3.534-13.87-12.201-14.294-12.764-.405-.562-3.409-4.59-3.409-8.754 0-4.165 2.092-6.193 2.935-7.064.693-.715 1.838-1.041 2.936-1.041.355 0 .675.018.962.033.843.036 1.267.087 1.823 1.433.692 1.687 2.38 5.852 2.58 6.28.205.428.41 1.008.122 1.57-.27.581-.506.839-.93 1.332-.423.494-.825.87-1.248 1.4-.388.461-.826.955-.338 1.807.489.835 2.175 3.617 4.659 5.852 3.204 2.885 5.802 3.806 6.732 4.198.692.29 1.518.221 2.024-.323.642-.7 1.435-1.861 2.243-3.004.574-.82 1.299-.922 2.06-.631.775.272 4.877 2.322 5.72 2.746.843.428 1.4.631 1.604.99.2.36.2 2.047-.492 4.028z" fill="#26A4E3"/></svg>