<?xml version="1.0" encoding="utf-8"?><svg width="65" height="63" fill="none" xmlns="http://www.w3.org/2000/svg" viewBox="0 0 65 63"><path d="M31.549 2.163c.3-.921 1.603-.921 1.902 0l6.293 19.367a3 3 0 002.853 2.073H62.96c.969 0 1.372 1.24.588 1.809l-16.474 11.97a3 3 0 00-1.09 3.353l6.293 19.367c.299.921-.756 1.688-1.54 1.118L34.264 49.25a3 3 0 00-3.526 0L14.262 61.22c-.783.57-1.838-.197-1.539-1.118l6.293-19.367a3 3 0 00-1.09-3.354L1.452 25.411c-.784-.569-.381-1.808.588-1.808h20.363a3 3 0 002.853-2.073L31.55 2.163z" stroke="#000" stroke-width="2"/></svg>