<?xml version="1.0" encoding="utf-8"?><svg width="30" height="30" fill="none" xmlns="http://www.w3.org/2000/svg" viewBox="0 0 30 30"><path d="M24.475 15.756h-2.154c.22.602.34 1.25.34 1.926v8.142a2.4 2.4 0 01-.139.804h3.561a2.415 2.415 0 002.413-2.413v-4.438a4.025 4.025 0 00-4.02-4.02zM6.478 17.682c0-.676.12-1.324.34-1.926H4.662a4.025 4.025 0 00-4.02 4.021v4.438a2.415 2.415 0 002.412 2.413h3.561a2.401 2.401 0 01-.138-.804v-8.142zM17.032 13.662h-4.925a4.025 4.025 0 00-4.02 4.02v8.142c0 .444.36.804.803.804h11.358c.444 0 .804-.36.804-.804v-8.142a4.025 4.025 0 00-4.02-4.02zM14.57 3a4.841 4.841 0 00-4.836 4.836 4.84 4.84 0 004.835 4.835 4.839 4.839 0 004.836-4.836A4.841 4.841 0 0014.569 3zM6.078 7.507a3.62 3.62 0 00-3.616 3.616 3.62 3.62 0 005.041 3.324 3.64 3.64 0 001.766-1.625c.271-.507.425-1.085.425-1.699a3.62 3.62 0 00-3.616-3.616zM23.06 7.507a3.62 3.62 0 00-3.616 3.616c0 .614.154 1.192.425 1.7a3.639 3.639 0 001.766 1.624 3.62 3.62 0 005.041-3.323 3.62 3.62 0 00-3.616-3.617z" fill="#27AE60"/></svg>