<?xml version="1.0" encoding="utf-8"?><svg width="60" height="60" fill="none" xmlns="http://www.w3.org/2000/svg" viewBox="0 0 60 60"><path d="M30 60c16.569 0 30-13.431 30-30C60 13.431 46.569 0 30 0 13.431 0 0 13.431 0 30c0 16.569 13.431 30 30 30z" fill="url(#spaint0_linear_46_342)"/><path fill-rule="evenodd" clip-rule="evenodd" d="M13.58 29.683c8.745-3.81 14.577-6.322 17.495-7.536 8.331-3.465 10.063-4.067 11.19-4.087.249-.004.804.058 1.163.35.534.432.537 1.37.477 1.992-.451 4.744-2.405 16.256-3.398 21.569-.421 2.248-1.25 3.002-2.05 3.076-1.743.16-3.066-1.152-4.753-2.258-2.64-1.73-4.132-2.808-6.695-4.497-2.962-1.952-1.042-3.025.646-4.778.442-.459 8.118-7.44 8.266-8.074.019-.08.036-.374-.14-.53-.175-.156-.434-.103-.62-.06-.265.06-4.483 2.848-12.655 8.363-1.197.823-2.281 1.223-3.253 1.202-1.071-.023-3.131-.605-4.663-1.103-1.879-.611-3.372-.934-3.242-1.971.068-.54.811-1.093 2.232-1.658z" fill="#fff"/><defs><linearGradient id="spaint0_linear_46_342" x1="30" y1="0" x2="30" y2="59.531" gradientUnits="userSpaceOnUse"><stop stop-color="#2AABEE"/><stop offset="1" stop-color="#229ED9"/></linearGradient></defs></svg>