<?xml version="1.0" encoding="utf-8"?><svg width="60" height="60" fill="none" xmlns="http://www.w3.org/2000/svg" viewBox="0 0 60 60"><path d="M30 60c16.569 0 30-13.432 30-30C60 13.43 46.569 0 30 0 13.432 0 0 13.431 0 30c0 16.568 13.432 30 30 30z" fill="#55ACEE"/><path d="M48.376 21.56c-1.285.57-2.668.956-4.119 1.128a7.19 7.19 0 003.154-3.967 14.354 14.354 0 01-4.554 1.74 7.164 7.164 0 00-5.235-2.264 7.172 7.172 0 00-6.984 8.805c-5.96-.299-11.244-3.153-14.78-7.493a7.14 7.14 0 00-.972 3.605 7.17 7.17 0 003.19 5.97 7.12 7.12 0 01-3.248-.899v.091a7.175 7.175 0 005.752 7.03 7.145 7.145 0 01-3.238.125 7.178 7.178 0 006.699 4.98 14.388 14.388 0 01-8.907 3.07c-.577 0-1.15-.034-1.71-.101a20.284 20.284 0 0010.992 3.222c13.19 0 20.402-10.927 20.402-20.403 0-.311-.007-.62-.02-.928a14.545 14.545 0 003.578-3.711z" fill="#F1F2F2"/></svg>