<?xml version="1.0" encoding="utf-8"?><svg width="30" height="30" fill="none" xmlns="http://www.w3.org/2000/svg" viewBox="0 0 30 30"><path d="M23.174 6.273c-.16-1.94-1.875-3.518-3.821-3.518H15l-4.783 18.75h14.22L23.174 6.273z" fill="#FF1B10"/><path d="M10.647 2.755c-1.946 0-3.66 1.578-3.822 3.518L5.563 21.505H15V2.755h-4.353z" fill="#FF451B"/><path d="M15.717 12.895H15l-.717 9.328h1.434v-9.328z" fill="#FF6523"/><path d="M14.283 12.895H15v9.328h-.717v-9.328z" fill="#FF852B"/><path d="M10.647 8.59v8.61a4.305 4.305 0 100-8.61z" fill="#FF6523"/><path d="M14.952 12.895a4.305 4.305 0 004.305 4.305V8.59a4.305 4.305 0 00-4.305 4.305z" fill="#FF451B"/><path d="M23.657 20.07H15l-1.913 5.5 14.158-1.912a3.591 3.591 0 00-3.588-3.588z" fill="#3C4047"/><path d="M15 20.07H6.342a3.591 3.591 0 00-3.587 3.588L15 25.57v-5.5z" fill="#50545B"/><path d="M15 27.245h12.245v-3.588H15l-1.913 1.794L15 27.245z" fill="#000"/><path d="M2.755 23.657H15v3.588H2.755v-3.588z" fill="#3C4047"/></svg>