<?xml version="1.0" encoding="utf-8"?><svg width="60" height="60" fill="none" xmlns="http://www.w3.org/2000/svg" viewBox="0 0 60 60"><path d="M30 60c16.569 0 30-13.431 30-30C60 13.431 46.569 0 30 0 13.431 0 0 13.431 0 30c0 16.569 13.431 30 30 30z" fill="#29A71A"/><path d="M43.227 16.773a18.604 18.604 0 00-29.802 21.521l-1.974 9.583a.711.711 0 00.113.556.72.72 0 00.763.296l9.392-2.226a18.6 18.6 0 0021.508-29.73zM40.3 40.145a14.57 14.57 0 01-16.78 2.728l-1.309-.648-5.758 1.364.017-.072 1.194-5.796-.641-1.264a14.564 14.564 0 1123.277 3.688z" fill="#fff"/><path d="M39.788 35.894c-.706 1.112-1.82 2.472-3.222 2.81-2.455.593-6.222.02-10.91-4.35l-.057-.052c-4.122-3.821-5.192-7.002-4.933-9.525.143-1.432 1.336-2.727 2.342-3.573a1.34 1.34 0 012.097.481l1.517 3.41a1.333 1.333 0 01-.167 1.363l-.767.995a1.319 1.319 0 00-.12 1.473c.43.754 1.46 1.861 2.601 2.888 1.282 1.159 2.704 2.219 3.604 2.58a1.303 1.303 0 001.428-.3l.89-.896a1.364 1.364 0 011.33-.341l3.603 1.023a1.362 1.362 0 01.764 2.014z" fill="#fff"/></svg>