<svg width="60" height="60" viewBox="0 0 60 60" fill="none" xmlns="http://www.w3.org/2000/svg">
<path d="M30 60C46.5685 60 60 46.5685 60 30C60 13.4315 46.5685 0 30 0C13.4315 0 0 13.4315 0 30C0 46.5685 13.4315 60 30 60Z" fill="#5C6BC0"/>
<path d="M47.8273 18.1653C42.5093 14.3493 37.554 14.1907 36.6073 14.1709L36.003 14.7444C42.7914 16.6427 46.0748 19.6088 46.0748 19.6088C40.248 16.7947 34.757 15.8051 30 15.7455C25.2431 15.8055 19.752 16.7947 13.9253 19.6088C13.9253 19.6088 17.2087 16.6427 23.9972 14.7444L23.3928 14.1709C22.4461 14.1907 17.4907 14.3489 12.1728 18.1653C12.1728 18.1653 6.23041 28.1316 6.23041 40.3718C6.43177 40.1346 9.91669 45.6318 18.9008 45.8295C18.9008 45.8295 20.4116 44.1487 21.4993 42.6656C16.2619 41.1825 14.2879 38.2165 14.2879 38.2165C19.7328 41.5833 24.8185 42.8787 30 42.7104C35.1815 42.8784 40.2672 41.5833 45.7121 38.2165C45.7121 38.2165 43.7381 41.1825 38.5001 42.6656C39.5879 44.1487 41.0987 45.8295 41.0987 45.8295C50.0827 45.6318 53.5677 40.1346 53.769 40.3718C53.7696 28.1316 47.8273 18.1653 47.8273 18.1653ZM22.6873 36.5357C20.3909 36.5357 18.5377 34.6373 18.5377 32.3039C18.5377 29.9705 20.3909 28.0722 22.6873 28.0722V28.092C24.9636 28.092 26.8369 29.9904 26.8369 32.3237C26.8374 34.6373 24.984 36.5357 22.6878 36.5357H22.6873ZM37.3117 36.5357C35.0153 36.5357 33.1621 34.6373 33.1621 32.3237C33.1621 29.9904 35.0354 28.092 37.3117 28.092V28.0722C39.6082 28.0722 41.4613 29.9706 41.4613 32.3039C41.4613 34.6371 39.6087 36.5357 37.3122 36.5357H37.3117Z" fill="white"/>
</svg>
