<svg width="52" height="36" viewBox="0 0 52 36" fill="none" xmlns="http://www.w3.org/2000/svg">
<path d="M47.4297 0H4.57031C2.05542 0 0 2.0149 0 4.5V31.5C0 33.986 2.05674 36 4.57031 36H47.4297C49.9446 36 52 33.9851 52 31.5V4.5C52 2.0143 49.9436 0 47.4297 0ZM46.7279 3C45.2503 4.4597 27.8936 21.605 27.1806 22.3094C26.585 22.8976 25.4153 22.898 24.8194 22.3094L5.27211 3H46.7279ZM3.04688 30.9485V5.0515L16.155 18L3.04688 30.9485ZM5.27211 33L18.306 20.1248L22.6615 24.4273C24.4464 26.1904 27.5543 26.1897 29.3386 24.4273L33.6941 20.1249L46.7279 33H5.27211ZM48.9531 30.9485L35.845 18L48.9531 5.0515V30.9485Z" fill="#25A2E0"/>
</svg>
