<svg width="60" height="60" viewBox="0 0 60 60" fill="none" xmlns="http://www.w3.org/2000/svg">
<path d="M30 60C46.5685 60 60 46.5685 60 30C60 13.4315 46.5685 0 30 0C13.4315 0 0 13.4315 0 30C0 46.5685 13.4315 60 30 60Z" fill="url(#paint0_linear_119_339)"/>
<path d="M36.3733 13.334H23.64C17.96 13.334 13.3467 17.9473 13.3467 23.6273V36.3607C13.3467 42.0407 17.96 46.654 23.64 46.654H36.3733C42.0533 46.654 46.6667 42.0407 46.6667 36.3607V23.6273C46.6667 17.9473 42.0533 13.334 36.3733 13.334ZM42.9467 36.374C42.9467 40.0007 40 42.9607 36.36 42.9607H23.6267C20 42.9607 17.04 40.014 17.04 36.374V23.6407C17.04 20.014 19.9867 17.054 23.6267 17.054H36.36C39.9867 17.054 42.9467 20.0007 42.9467 23.6407V36.374Z" fill="white"/>
<path d="M30 21.4805C25.3066 21.4805 21.48 25.3071 21.48 30.0005C21.48 34.6938 25.3066 38.5205 30 38.5205C34.6933 38.5205 38.52 34.6938 38.52 30.0005C38.52 25.3071 34.6933 21.4805 30 21.4805ZM30 35.1738C27.1466 35.1738 24.8266 32.8538 24.8266 30.0005C24.8266 27.1471 27.1466 24.8271 30 24.8271C32.8533 24.8271 35.1733 27.1471 35.1733 30.0005C35.1733 32.8538 32.8533 35.1738 30 35.1738Z" fill="white"/>
<path d="M39.1689 22.4149C39.9538 22.2877 40.487 21.5482 40.3597 20.7632C40.2325 19.9783 39.493 19.4451 38.708 19.5724C37.9231 19.6996 37.3899 20.4391 37.5172 21.224C37.6444 22.009 38.3839 22.5421 39.1689 22.4149Z" fill="white"/>
<defs>
<linearGradient id="paint0_linear_119_339" x1="7.1572" y1="52.8428" x2="49.7905" y2="10.2095" gradientUnits="userSpaceOnUse">
<stop stop-color="#FEE411"/>
<stop offset="0.0518459" stop-color="#FEDB16"/>
<stop offset="0.1381" stop-color="#FEC125"/>
<stop offset="0.2481" stop-color="#FE983D"/>
<stop offset="0.3762" stop-color="#FE5F5E"/>
<stop offset="0.5" stop-color="#FE2181"/>
<stop offset="1" stop-color="#9000DC"/>
</linearGradient>
</defs>
</svg>
