<svg width="30" height="30" viewBox="0 0 30 30" fill="none" xmlns="http://www.w3.org/2000/svg">
<path d="M4.84006 27.6608C3.96573 26.3494 3.32275 26.0783 2.01994 20.4324C1.90203 19.9214 2.32533 19.4441 2.84958 19.5045C5.50065 19.8109 7.82079 19.3705 9.7616 18.1951C5.31683 14.4333 4.49785 8.00985 5.25 4.25305C5.38157 3.59575 6.24133 3.41716 6.62325 3.96909C8.98924 7.388 15.6633 14.0335 20.3901 10.2247C22.0496 8.86479 23.5907 8.31215 24.9706 8.58225C26.3736 8.85681 27.1913 9.81996 27.8833 11.0203C28.1539 11.4514 27.933 12.0229 27.442 12.1592C24.3514 13.0178 24.2261 13.5868 23.0742 17.0758C20.9699 23.4504 18.4427 24.6186 13.3704 24.5609C11.7089 24.5419 10.2736 24.5256 9.14371 25.3541C8.09069 26.1214 7.05467 26.9581 5.9467 27.8355C5.59785 28.1116 5.087 28.0312 4.84006 27.6608V27.6608ZM27.8768 11.0103C27.8781 11.0123 27.8794 11.0144 27.8807 11.0165C27.8793 11.0142 27.878 11.0122 27.8768 11.0103Z" fill="#4E88E8"/>
<path d="M18 9.81675C16.1623 10.4774 13.9378 9.26613 12 7.55565C12.3453 5.98944 12.5678 4.5239 12.6259 2.75114C12.6469 2.11179 13.3299 1.77239 13.7872 2.17199C16.0632 4.16219 17.6199 6.80368 18 9.81675Z" fill="#4E88E8"/>
</svg>
