<svg width="60" height="60" viewBox="0 0 60 60" fill="none" xmlns="http://www.w3.org/2000/svg">
<path d="M30 60C46.5685 60 60 46.5685 60 30C60 13.4315 46.5685 0 30 0C13.4315 0 0 13.4315 0 30C0 46.5685 13.4315 60 30 60Z" fill="white"/>
<path d="M46.3923 41.7106C45.6997 43.6879 42.9508 45.3277 40.7581 45.8066C39.2581 46.1295 37.2987 46.3871 30.7027 43.6226C22.2659 40.0889 16.8327 31.4216 16.4092 30.8593C16.0037 30.2969 13 26.2699 13 22.1049C13 17.94 15.0922 15.912 15.9355 15.0412C16.6281 14.3265 17.7729 14 18.871 14C19.2263 14 19.5457 14.0181 19.8328 14.0327C20.6761 14.0689 21.0996 14.1197 21.6558 15.4657C22.3484 17.1527 24.0351 21.3177 24.236 21.7458C24.4406 22.1739 24.6451 22.7544 24.358 23.3167C24.0889 23.8972 23.852 24.1548 23.4286 24.6482C23.0051 25.1416 22.6032 25.5189 22.1797 26.0486C21.7922 26.5093 21.3543 27.0027 21.8424 27.8553C22.3305 28.6897 24.0171 31.4724 26.5005 33.7073C29.7051 36.5915 32.3033 37.513 33.2327 37.9049C33.9253 38.1951 34.7507 38.1262 35.2567 37.582C35.8991 36.8818 36.6922 35.7208 37.4996 34.578C38.0738 33.7581 38.7987 33.6565 39.5595 33.9467C40.3347 34.2188 44.4365 36.2686 45.2798 36.6931C46.1231 37.1212 46.6794 37.3244 46.8839 37.6835C47.0849 38.0427 47.0849 39.7297 46.3923 41.7106Z" fill="#26A4E3"/>
</svg>
