<svg width="60" height="60" viewBox="0 0 60 60" fill="none" xmlns="http://www.w3.org/2000/svg">
<path d="M30 60C46.5685 60 60 46.5685 60 30C60 13.4315 46.5685 0 30 0C13.4315 0 0 13.4315 0 30C0 46.5685 13.4315 60 30 60Z" fill="url(#paint0_linear_46_342)"/>
<path fill-rule="evenodd" clip-rule="evenodd" d="M13.5797 29.6834C22.3253 25.873 28.1571 23.361 31.075 22.1474C39.4063 18.6822 41.1375 18.0802 42.2658 18.0603C42.514 18.0559 43.0689 18.1175 43.4283 18.4091C43.9615 18.8418 43.9645 19.7809 43.9054 20.4025C43.4538 25.1462 41.5003 36.6579 40.5065 41.971C40.0859 44.2191 39.2578 44.973 38.4563 45.0467C36.7142 45.207 35.3912 43.8953 33.7038 42.7893C31.0635 41.0584 29.5718 39.981 27.0088 38.2921C24.0469 36.3402 25.967 35.2675 27.655 33.5143C28.0968 33.0555 35.7727 26.0735 35.9213 25.4402C35.9399 25.3609 35.9571 25.0656 35.7817 24.9098C35.6063 24.7539 35.3474 24.8071 35.1606 24.8495C34.8958 24.9096 30.6777 27.6976 22.5065 33.2134C21.3092 34.0356 20.2247 34.4362 19.2531 34.4152C18.1819 34.3921 16.1215 33.8096 14.5897 33.3116C12.711 32.701 11.2178 32.378 11.3479 31.3409C11.4156 30.8005 12.1595 30.2481 13.5797 29.6834Z" fill="white"/>
<defs>
<linearGradient id="paint0_linear_46_342" x1="30" y1="0" x2="30" y2="59.5313" gradientUnits="userSpaceOnUse">
<stop stop-color="#2AABEE"/>
<stop offset="1" stop-color="#229ED9"/>
</linearGradient>
</defs>
</svg>
