<svg width="60" height="60" viewBox="0 0 60 60" fill="none" xmlns="http://www.w3.org/2000/svg">
<path d="M30.0003 59.9995C46.5687 59.9995 60 46.5681 60 29.9997C60 13.4313 46.5687 0 30.0003 0C13.4319 0 0.000549316 13.4313 0.000549316 29.9997C0.000549316 46.5681 13.4319 59.9995 30.0003 59.9995Z" fill="#55ACEE"/>
<path d="M48.3762 21.5599C47.0906 22.13 45.7077 22.5156 44.2573 22.6878C45.7381 21.8006 46.8745 20.3968 47.4109 18.7213C46.0253 19.5433 44.49 20.1396 42.8573 20.461C41.5493 19.0679 39.6856 18.1973 37.6219 18.1973C33.6624 18.1973 30.4511 21.4086 30.4511 25.368C30.4511 25.9301 30.5147 26.4772 30.6377 27.0023C24.6782 26.7034 19.3941 23.8488 15.8571 19.5091C15.24 20.5679 14.886 21.8006 14.886 23.1145C14.886 25.6017 16.1529 27.7975 18.0759 29.0831C16.901 29.0462 15.7946 28.7238 14.8282 28.1852C14.8277 28.2157 14.8277 28.2462 14.8277 28.2761C14.8277 31.7506 17.3005 34.6485 20.5802 35.3068C19.9792 35.4715 19.3444 35.5587 18.6914 35.5587C18.2283 35.5587 17.7796 35.5143 17.3422 35.4309C18.2545 38.2791 20.9022 40.3524 24.0408 40.4107C21.5862 42.3343 18.4946 43.4803 15.1341 43.4803C14.5566 43.4803 13.9843 43.4466 13.4244 43.3798C16.5962 45.4151 20.3663 46.6018 24.4156 46.6018C37.6053 46.6018 44.8183 35.6753 44.8183 26.1986C44.8183 25.8878 44.8114 25.5782 44.7975 25.2713C46.1996 24.2605 47.4152 22.9979 48.3762 21.5599Z" fill="#F1F2F2"/>
</svg>
