<svg width="30" height="30" viewBox="0 0 30 30" fill="none" xmlns="http://www.w3.org/2000/svg">
<path d="M23.1745 6.27337C23.0138 4.33338 21.2993 2.75513 19.3526 2.75513H15L10.2168 21.5051H24.4368L23.1745 6.27337Z" fill="#FF1B10"/>
<path d="M10.6473 2.75513C8.70057 2.75513 6.9861 4.33338 6.82542 6.27337L5.56311 21.5051H15V2.75513H10.6473Z" fill="#FF451B"/>
<path d="M15.7175 12.8954H15L14.2825 22.2226H15.7175V12.8954Z" fill="#FF6523"/>
<path d="M14.2825 12.8954H15V22.2226H14.2825V12.8954Z" fill="#FF852B"/>
<path d="M10.6473 8.59058V17.2003C13.0248 17.2003 14.9521 15.273 14.9521 12.8954C14.9521 10.5179 13.0248 8.59058 10.6473 8.59058Z" fill="#FF6523"/>
<path d="M14.9521 12.8954C14.9521 15.273 16.8794 17.2003 19.257 17.2003V8.59058C16.8794 8.59058 14.9521 10.5179 14.9521 12.8954Z" fill="#FF451B"/>
<path d="M23.6575 20.0702H15L13.0867 25.5708L27.2449 23.6576C27.2449 21.6795 25.6356 20.0702 23.6575 20.0702Z" fill="#3C4047"/>
<path d="M15 20.0702H6.34244C4.36434 20.0702 2.75507 21.6795 2.75507 23.6576L15 25.5708V20.0702Z" fill="#50545B"/>
<path d="M15 27.2448H27.2449V23.6575H15L13.0867 25.4512L15 27.2448Z" fill="black"/>
<path d="M2.75507 23.6575H15V27.2448H2.75507V23.6575Z" fill="#3C4047"/>
</svg>
